<svg width="129" height="23" viewBox="0 0 129 23" fill="none" xmlns="http://www.w3.org/2000/svg">
<g clip-path="url(#clip0_1680_2817)">
<path d="M80.3408 13.3485C79.1937 13.3485 78.3027 13.6264 77.6678 14.1822C77.3461 14.4768 77.0939 14.8404 76.9296 15.2463C76.7654 15.6522 76.6932 16.0901 76.7185 16.5279C76.6951 16.9312 76.7611 17.3346 76.9118 17.7089C77.0625 18.0831 77.294 18.4187 77.5895 18.6911C78.1681 19.1982 78.9717 19.4527 80.0003 19.4547C81.5231 19.4547 82.7004 18.7296 83.5322 17.2794C84.3639 15.8291 84.7808 13.8008 84.7828 11.1945H87.9922C87.9922 13.5737 87.6537 15.607 86.9766 17.2946C86.4 18.8499 85.3783 20.197 84.0415 21.1646C82.6624 22.0849 81.0348 22.5514 79.3825 22.5002C77.5081 22.5002 76.0586 21.98 75.034 20.9394C74.0094 19.8989 73.4971 18.4284 73.4971 16.5279C73.4971 14.8241 73.9903 13.4621 74.9767 12.4419C75.9632 11.4216 77.3434 10.8334 79.1173 10.6772L80.3408 13.3485Z" fill="url(#paint0_linear_1680_2817)"/>
<path d="M4.32105 8.90023C3.8783 9.01784 3.40862 8.97364 2.99503 8.77543C2.58144 8.57723 2.25057 8.23779 2.0609 7.81711C1.5486 6.63056 1.06643 5.41966 0.584261 4.2331C0.252772 3.45119 0.945889 2.54454 1.84995 2.34069C2.29308 2.21883 2.76481 2.26141 3.1795 2.46069C3.59419 2.65998 3.92437 3.00277 4.1101 3.42685C4.6224 4.6134 5.10457 5.79692 5.58673 7.00782C5.92124 7.78973 5.22512 8.67509 4.32105 8.90023ZM28.128 3.25951L22.2516 20.6958C22.2516 21.5173 21.5886 22.0649 20.8654 22.2171H20.8352C20.8233 22.2286 20.8091 22.2373 20.7934 22.2425C20.7778 22.2478 20.7612 22.2495 20.7448 22.2475C19.7202 22.43 18.5449 21.7911 18.5148 20.6958C17.1286 16.6494 15.7424 12.5725 14.3561 8.526C13 12.5725 11.6439 16.6189 10.2577 20.6958C10.2312 21.0753 10.0758 21.4338 9.81773 21.711C9.55968 21.9881 9.21482 22.1669 8.84136 22.2171C8.82945 22.2286 8.81517 22.2373 8.79953 22.2425C8.7839 22.2478 8.76731 22.2495 8.75095 22.2475C7.72635 22.43 6.55107 21.7911 6.52093 20.6958C5.79768 18.5965 5.07142 16.4668 4.34818 14.3675C3.56466 12.0857 7.12364 11.1425 7.90716 13.3635C8.05784 13.8503 8.20852 14.3067 8.38933 14.763C9.74542 10.7166 11.1015 6.63968 12.4576 2.59321C12.4877 1.77175 13.1206 1.22411 13.874 1.04156H13.9945C15.0191 0.859015 16.1643 1.4675 16.2245 2.59321C17.6108 6.64272 18.997 10.7196 20.3832 14.763C21.7694 10.5949 23.1858 6.42671 24.572 2.28897C25.3284 0.0040819 28.8844 0.977669 28.131 3.25951H28.128Z" fill="#23262F"/>
<path d="M33.7333 4.59194V9.70631H38.4977C40.8483 9.70631 40.8483 13.3877 38.4977 13.3877H33.7333V18.5294H38.4977C40.8483 18.5294 40.8483 22.2108 38.4977 22.2108H31.9252C31.4398 22.2037 30.9763 22.0059 30.6331 21.6594C30.2898 21.3129 30.0939 20.8449 30.0869 20.3549V2.74213C30.0939 2.25211 30.2898 1.78416 30.6331 1.43763C30.9763 1.09111 31.4398 0.893305 31.9252 0.88623H38.4977C40.8483 0.88623 40.8483 4.59803 38.4977 4.59803L33.7333 4.59194Z" fill="#23262F"/>
<path d="M54.9516 22.2168H44.7267C44.4799 22.2257 44.234 22.1814 44.0054 22.087C43.7768 21.9926 43.5706 21.8502 43.4007 21.6692C43.2319 21.4976 43.0995 21.2931 43.0114 21.0682C42.9233 20.8433 42.8815 20.6027 42.8884 20.3609V2.6812C42.8884 0.308088 46.5649 0.308088 46.5649 2.6812V18.502H54.9456C57.3022 18.505 57.3022 22.2168 54.9516 22.2168Z" fill="#23262F"/>
<path d="M70.4377 22.2168H60.2218C59.975 22.2257 59.7291 22.1814 59.5005 22.087C59.2719 21.9926 59.0658 21.8502 58.8959 21.6692C58.727 21.4976 58.5946 21.2931 58.5065 21.0682C58.4184 20.8433 58.3766 20.6027 58.3836 20.3609V2.6812C58.3836 0.308088 62.0601 0.308088 62.0601 2.6812V18.502H70.4377C72.7913 18.505 72.7913 22.2168 70.4377 22.2168Z" fill="#23262F"/>
<path d="M85.2978 22.2779L78.5897 13.616C77.7042 12.4731 76.951 11.2319 76.3446 9.9164C75.7892 8.68544 75.5054 7.34732 75.5128 5.99468C75.5128 4.24222 75.9759 2.88833 76.9021 1.93299C77.8283 0.977663 79.1412 0.5 80.8408 0.5C82.5384 0.5 83.8443 0.965495 84.7584 1.89649C85.6725 2.82748 86.1306 4.14588 86.1326 5.85168V6.93784H82.7815V5.85168C82.822 5.22373 82.6428 4.60137 82.2752 4.09314C82.098 3.88786 81.8766 3.72628 81.628 3.6208C81.3793 3.51532 81.11 3.46875 80.8408 3.48465C80.5566 3.46847 80.2726 3.51914 80.0111 3.63265C79.7497 3.74616 79.5179 3.91942 79.334 4.13878C78.9432 4.67955 78.7533 5.34195 78.7976 6.00989C78.8107 7.00429 79.0337 7.98444 79.4515 8.88501C79.9526 9.97239 80.5831 10.9941 81.329 11.9275L89.3781 22.2718L85.2978 22.2779Z" fill="url(#paint1_linear_1680_2817)"/>
<path d="M102.839 13.4853H94.3713V20.5742C94.3713 22.8865 90.7852 22.8865 90.7852 20.5742V11.0817C90.7852 10.767 90.909 10.4652 91.1294 10.2427C91.3498 10.0202 91.6487 9.89517 91.9604 9.89517L95.8177 9.86475H102.839C105.13 9.86475 105.13 13.4853 102.839 13.4853Z" fill="#23262F"/>
<path d="M110.253 2.6812V20.3609C110.253 22.734 106.576 22.734 106.576 20.3609V2.6812C106.576 0.308088 110.253 0.308088 110.253 2.6812Z" fill="#23262F"/>
<path d="M126.737 4.59217H122.005C122.005 9.85866 122.005 5.80915 122.005 11.0604C122.005 13.4335 118.329 13.4335 118.329 11.0604C118.329 5.79698 118.329 9.85866 118.329 4.59217H113.628C111.247 4.59217 111.277 0.880371 113.628 0.880371H126.737C129.087 0.886456 129.087 4.59217 126.737 4.59217Z" fill="#23262F"/>
<path d="M4.32105 8.90013C3.8783 9.01774 3.40862 8.97354 2.99503 8.77533C2.58144 8.57713 2.25057 8.23769 2.0609 7.81701C1.5486 6.63046 1.06643 5.41956 0.584261 4.233C0.252772 3.45109 0.945889 2.54444 1.84995 2.34059C2.29308 2.21873 2.76481 2.26131 3.1795 2.46059C3.59419 2.65988 3.92437 3.00267 4.1101 3.42675C4.62241 4.6133 5.10457 5.79682 5.58673 7.00772C5.92124 7.78963 5.22512 8.67498 4.32105 8.90013Z" fill="url(#paint2_linear_1680_2817)"/>
<path d="M92.5334 0.983887H102.81C105.1 0.983887 105.1 4.57399 102.81 4.57399H92.5334C90.2311 4.57399 90.2311 0.983887 92.5334 0.983887Z" fill="#23262F"/>
<path d="M120.065 22.1199C119.612 22.0558 119.195 21.8325 118.889 21.4892C118.583 21.1459 118.406 20.7046 118.39 20.2427C118.366 18.9497 118.39 17.6445 118.39 16.3636C118.39 15.5117 119.366 14.9428 120.279 15.104C120.735 15.1628 121.154 15.3846 121.462 15.729C121.769 16.0734 121.944 16.5177 121.955 16.9812C121.979 18.2742 121.973 19.5551 121.955 20.8603C121.97 21.7122 120.993 22.2599 120.065 22.1199Z" fill="url(#paint3_linear_1680_2817)"/>
</g>
<defs>
<linearGradient id="paint0_linear_1680_2817" x1="75.0886" y1="21.2696" x2="82.3116" y2="10.8597" gradientUnits="userSpaceOnUse">
<stop stop-color="#EA4136"/>
<stop offset="1" stop-color="#FF8C53"/>
</linearGradient>
<linearGradient id="paint1_linear_1680_2817" x1="77.035" y1="20.0049" x2="90.6591" y2="9.80491" gradientUnits="userSpaceOnUse">
<stop stop-color="#EA4136"/>
<stop offset="1" stop-color="#FF8C53"/>
</linearGradient>
<linearGradient id="paint2_linear_1680_2817" x1="1.06786" y1="8.26614" x2="5.41116" y2="4.31891" gradientUnits="userSpaceOnUse">
<stop stop-color="#EA4136"/>
<stop offset="1" stop-color="#FF8C53"/>
</linearGradient>
<linearGradient id="paint3_linear_1680_2817" x1="118.773" y1="21.4043" x2="122.831" y2="18.9789" gradientUnits="userSpaceOnUse">
<stop stop-color="#EA4136"/>
<stop offset="1" stop-color="#FF8C53"/>
</linearGradient>
<clipPath id="clip0_1680_2817">
<rect width="128" height="22" fill="white" transform="translate(0.5 0.5)"/>
</clipPath>
</defs>
</svg>
