<svg width="250" height="121" viewBox="0 0 250 121" fill="none" xmlns="http://www.w3.org/2000/svg">
<path d="M183.386 27.6681C168.821 51.1207 154.23 64.4772 143.101 72.0062C139.927 74.17 136.603 76.1074 133.152 77.8036C127.455 80.581 120.917 81.1434 114.823 79.3801C114.31 79.2422 113.807 79.0743 113.299 78.8934C101.821 74.78 86.5491 65.8167 75.2587 52.6712C73.1907 50.2479 71.3913 47.6111 69.8915 44.8063C66.0701 37.7038 64.2463 29.5546 65.6228 21.5174C66.3397 17.5165 68.0185 13.7461 70.5168 10.5255C72.4736 7.96072 74.8854 5.77133 77.634 4.06472C77.773 3.97858 77.9076 3.89674 78.0466 3.81921C81.0644 1.99992 84.4735 0.915086 87.9951 0.653431C88.2513 0.627588 88.5075 0.623283 88.7637 0.614668C89.0199 0.606054 89.198 0.614668 89.3934 0.614668H89.528C89.8016 0.614668 90.0795 0.614668 90.3574 0.614668L82.7234 14.1177L81.2339 16.7537C80.048 17.4513 78.9979 18.3544 78.1334 19.4198C71.1508 28.1203 81.6074 44.0181 102.017 37.8804C114.154 34.2279 122.643 38.7203 127.312 43.7554C128.946 45.4565 130.235 47.4541 131.107 49.639C131.12 49.6537 131.132 49.6696 131.142 49.6864C131.214 45.7067 131.798 41.7524 132.879 37.9191C139.301 15.5606 161.517 10.7839 166.285 10.4135C171.791 9.98278 178.136 9.23764 182.621 15.0093C187.107 20.7809 183.386 27.6681 183.386 27.6681Z" fill="#1E252B"/>
<path style="mix-blend-mode:multiply" opacity="0.5" d="M82.356 14.0647L80.8984 16.7296C79.7379 17.435 78.7102 18.3479 77.8643 19.4251C77.8643 19.4251 62.4005 22.4384 69.7903 45.0776C66.0507 37.897 64.266 29.6582 65.6131 21.5327C66.3146 17.4878 67.9574 13.6759 70.4022 10.4199L75.3698 10.8205L79.8233 11.8351L82.356 14.0647Z" fill="url(#paint0_linear_1201_8494)"/>
<path d="M111.294 24.6845C109.614 29.0423 105.248 32.3464 100.55 32.5632C98.6197 32.644 96.7023 32.2101 94.9927 31.3058C94.9838 31.295 94.9717 31.2874 94.9582 31.2841C92.6493 30.0451 90.7114 28.21 89.3445 25.968C87.8547 23.5788 87.1293 20.8731 84.9615 18.9218C83.8758 17.9296 82.5655 17.2181 81.1442 16.8491C80.1126 16.5812 79.0383 16.5208 77.9833 16.6714C64.5969 18.5923 65.6548 36.0365 69.8651 45.0773C66.0651 37.927 64.2514 29.7231 65.6203 21.6319C66.8164 14.499 71.4067 7.90805 77.5644 4.06625C77.7026 3.97952 77.8365 3.89714 77.9747 3.81909C79.5104 2.92963 81.1342 2.20303 82.8197 1.65103C83.9706 1.27655 85.1507 0.999516 86.3477 0.822829C86.8486 0.749115 87.3581 0.697082 87.8677 0.653721C88.1225 0.653721 88.3772 0.623366 88.632 0.614694C88.8868 0.606022 89.0638 0.614694 89.2582 0.614694H89.392C91.2185 0.607286 93.0388 0.827214 94.8114 1.26945C98.8641 2.30913 102.588 4.36509 105.633 7.24463C110.262 11.6111 113.76 18.2844 111.294 24.6845Z" fill="url(#paint1_linear_1201_8494)"/>
<path style="mix-blend-mode:multiply" opacity="0.5" d="M143.279 71.9718C140.077 74.1447 136.723 76.0901 133.243 77.7934C127.496 80.5824 120.899 81.1471 114.752 79.3764C133.703 80.2976 127.338 43.6338 127.338 43.6338C128.986 45.342 130.286 47.3479 131.166 49.5419C131.179 49.5567 131.191 49.5726 131.201 49.5894C131.274 45.5932 131.863 41.6224 132.953 37.7733L135.345 35.269C135.345 35.269 142.486 45.3379 143.506 48.2443C144.194 50.2339 143.677 62.768 143.279 71.9718Z" fill="url(#paint2_linear_1201_8494)"/>
<path d="M183.382 27.8847C179.396 34.3174 175.016 40.5039 170.266 46.4098C155.486 64.7161 141.792 73.6054 133.102 77.8141C127.398 80.5806 120.853 81.1407 114.752 79.3843C131.515 82.0014 130.589 61.6829 131.041 49.7819C131.054 49.7966 131.066 49.8124 131.076 49.8291C131.893 17.4252 160.741 11.1529 166.254 10.711C167.558 10.6038 168.919 10.4836 170.279 10.4407C174.674 10.2863 179.182 10.9041 182.608 15.2887C187.116 21.0504 183.382 27.8847 183.382 27.8847Z" fill="url(#paint3_linear_1201_8494)"/>
<g clip-path="url(#clip0_1201_8494)">
<path d="M143.563 109.99C142.219 109.99 141.175 110.305 140.431 110.937C140.054 111.272 139.758 111.685 139.566 112.146C139.373 112.607 139.289 113.105 139.319 113.603C139.291 114.061 139.369 114.519 139.545 114.945C139.722 115.37 139.993 115.751 140.339 116.061C141.017 116.637 141.959 116.926 143.164 116.929C144.949 116.929 146.329 116.105 147.303 114.457C148.278 112.809 148.767 110.504 148.769 107.542H152.53C152.53 110.245 152.133 112.556 151.34 114.474C150.664 116.241 149.467 117.772 147.9 118.872C146.284 119.917 144.377 120.448 142.44 120.389C140.244 120.389 138.545 119.798 137.345 118.616C136.144 117.433 135.543 115.762 135.543 113.603C135.543 111.666 136.121 110.119 137.277 108.959C138.433 107.8 140.051 107.132 142.13 106.954L143.563 109.99Z" fill="url(#paint4_linear_1201_8494)"/>
<path d="M54.4778 104.935C53.959 105.069 53.4085 105.018 52.9239 104.793C52.4392 104.568 52.0515 104.182 51.8292 103.704C51.2288 102.356 50.6638 100.98 50.0987 99.6314C49.7103 98.7429 50.5225 97.7126 51.582 97.4809C52.1013 97.3425 52.6541 97.3908 53.14 97.6173C53.626 97.8438 54.0129 98.2333 54.2306 98.7152C54.8309 100.064 55.396 101.408 55.961 102.784C56.353 103.673 55.5372 104.679 54.4778 104.935ZM82.3766 98.5251L75.4901 118.339C75.4901 119.273 74.7132 119.895 73.8657 120.068H73.8303C73.8164 120.081 73.7997 120.091 73.7814 120.097C73.763 120.103 73.7436 120.105 73.7244 120.102C72.5237 120.31 71.1464 119.584 71.1111 118.339C69.4866 113.741 67.8621 109.108 66.2377 104.51C64.6485 109.108 63.0593 113.706 61.4348 118.339C61.4037 118.77 61.2216 119.178 60.9192 119.493C60.6168 119.808 60.2127 120.011 59.775 120.068C59.7611 120.081 59.7443 120.091 59.726 120.097C59.7077 120.103 59.6883 120.105 59.6691 120.102C58.4684 120.31 57.0911 119.584 57.0558 118.339C56.2082 115.953 55.3571 113.533 54.5096 111.148C53.5914 108.555 57.7621 107.483 58.6803 110.007C58.8568 110.56 59.0334 111.079 59.2453 111.597C60.8345 106.999 62.4236 102.366 64.0128 97.7679C64.0481 96.8344 64.7897 96.2121 65.6726 96.0047H65.8139C67.0146 95.7972 68.3566 96.4887 68.4272 97.7679C70.0517 102.37 71.6761 107.002 73.3006 111.597C74.9251 106.861 76.5849 102.124 78.2094 97.4222C79.0958 94.8257 83.263 95.9321 82.3801 98.5251H82.3766Z" fill="#23262F"/>
<path d="M88.9455 100.039V105.851H94.5288C97.2833 105.851 97.2833 110.034 94.5288 110.034H88.9455V115.877H94.5288C97.2833 115.877 97.2833 120.061 94.5288 120.061H86.8266C86.2578 120.053 85.7146 119.828 85.3124 119.434C84.9102 119.04 84.6806 118.508 84.6724 117.952V97.9371C84.6806 97.3803 84.9102 96.8485 85.3124 96.4547C85.7146 96.0609 86.2578 95.8362 86.8266 95.8281H94.5288C97.2833 95.8281 97.2833 100.046 94.5288 100.046L88.9455 100.039Z" fill="#23262F"/>
<path d="M113.81 120.068H101.828C101.539 120.078 101.251 120.028 100.983 119.92C100.715 119.813 100.473 119.651 100.274 119.445C100.076 119.25 99.921 119.018 99.8178 118.763C99.7146 118.507 99.6656 118.234 99.6737 117.959V97.8682C99.6737 95.1715 103.982 95.1715 103.982 97.8682V115.846H113.803C116.565 115.85 116.565 120.068 113.81 120.068Z" fill="#23262F"/>
<path d="M131.959 120.068H119.987C119.698 120.078 119.41 120.028 119.142 119.92C118.874 119.813 118.632 119.651 118.433 119.445C118.235 119.25 118.08 119.018 117.977 118.763C117.874 118.507 117.825 118.234 117.833 117.959V97.8682C117.833 95.1715 122.141 95.1715 122.141 97.8682V115.846H131.959C134.717 115.85 134.717 120.068 131.959 120.068Z" fill="#23262F"/>
<path d="M149.373 120.137L141.512 110.294C140.474 108.995 139.591 107.584 138.881 106.09C138.23 104.691 137.897 103.17 137.906 101.633C137.906 99.6417 138.449 98.1032 139.534 97.0176C140.619 95.932 142.158 95.3892 144.15 95.3892C146.139 95.3892 147.669 95.9181 148.741 96.9761C149.812 98.034 150.349 99.5322 150.351 101.471V102.705H146.424V101.471C146.471 100.757 146.261 100.05 145.831 99.4723C145.623 99.239 145.363 99.0554 145.072 98.9355C144.781 98.8157 144.465 98.7627 144.15 98.7808C143.817 98.7624 143.484 98.82 143.177 98.949C142.871 99.078 142.599 99.2749 142.384 99.5241C141.926 100.139 141.703 100.891 141.755 101.65C141.771 102.78 142.032 103.894 142.522 104.918C143.109 106.153 143.848 107.314 144.722 108.375L154.154 120.13L149.373 120.137Z" fill="url(#paint5_linear_1201_8494)"/>
<path d="M169.929 110.145H160.006V118.201C160.006 120.828 155.803 120.828 155.803 118.201V107.414C155.803 107.056 155.948 106.713 156.207 106.46C156.465 106.207 156.815 106.065 157.18 106.065L161.701 106.031H169.929C172.613 106.031 172.613 110.145 169.929 110.145Z" fill="#23262F"/>
<path d="M178.617 97.8682V117.959C178.617 120.656 174.309 120.656 174.309 117.959V97.8682C174.309 95.1715 178.617 95.1715 178.617 97.8682Z" fill="#23262F"/>
<path d="M197.934 100.039H192.39C192.39 106.024 192.39 101.422 192.39 107.39C192.39 110.086 188.081 110.086 188.081 107.39C188.081 101.408 188.081 106.024 188.081 100.039H182.572C179.782 100.039 179.818 95.8213 182.572 95.8213H197.934C200.689 95.8282 200.689 100.039 197.934 100.039Z" fill="#23262F"/>
<path d="M54.4778 104.935C53.959 105.068 53.4085 105.018 52.9239 104.793C52.4392 104.568 52.0515 104.182 51.8292 103.704C51.2288 102.356 50.6638 100.98 50.0987 99.6312C49.7103 98.7427 50.5225 97.7124 51.582 97.4807C52.1013 97.3423 52.6541 97.3906 53.14 97.6171C53.626 97.8436 54.0129 98.2331 54.2306 98.715C54.8309 100.063 55.396 101.408 55.961 102.784C56.353 103.673 55.5372 104.679 54.4778 104.935Z" fill="url(#paint6_linear_1201_8494)"/>
<path d="M157.852 95.939H169.894C172.578 95.939 172.578 100.019 169.894 100.019H157.852C155.154 100.019 155.154 95.939 157.852 95.939Z" fill="#23262F"/>
<path d="M190.115 119.957C189.584 119.884 189.096 119.63 188.737 119.24C188.378 118.85 188.171 118.348 188.152 117.824C188.123 116.354 188.152 114.871 188.152 113.416C188.152 112.447 189.296 111.801 190.366 111.984C190.9 112.051 191.391 112.303 191.752 112.694C192.112 113.086 192.317 113.591 192.329 114.117C192.358 115.587 192.351 117.042 192.329 118.525C192.347 119.494 191.203 120.116 190.115 119.957Z" fill="url(#paint7_linear_1201_8494)"/>
</g>
<defs>
<linearGradient id="paint0_linear_1201_8494" x1="65.1754" y1="27.7509" x2="82.356" y2="27.7509" gradientUnits="userSpaceOnUse">
<stop stop-color="#07C3A6"/>
<stop offset="1" stop-color="#0067FC"/>
</linearGradient>
<linearGradient id="paint1_linear_1201_8494" x1="65.1798" y1="22.833" x2="112.11" y2="22.833" gradientUnits="userSpaceOnUse">
<stop stop-color="#EA4136"/>
<stop offset="1" stop-color="#FF8C53"/>
</linearGradient>
<linearGradient id="paint2_linear_1201_8494" x1="114.752" y1="57.8288" x2="143.844" y2="57.8288" gradientUnits="userSpaceOnUse">
<stop stop-color="#07C3A6"/>
<stop offset="1" stop-color="#0067FC"/>
</linearGradient>
<linearGradient id="paint3_linear_1201_8494" x1="122.447" y1="73.0863" x2="167.461" y2="20.0679" gradientUnits="userSpaceOnUse">
<stop stop-color="#EA4136"/>
<stop offset="1" stop-color="#FF8C53"/>
</linearGradient>
<linearGradient id="paint4_linear_1201_8494" x1="137.408" y1="118.991" x2="145.525" y2="106.927" gradientUnits="userSpaceOnUse">
<stop stop-color="#EA4136"/>
<stop offset="1" stop-color="#FF8C53"/>
</linearGradient>
<linearGradient id="paint5_linear_1201_8494" x1="139.69" y1="117.554" x2="155.3" y2="105.502" gradientUnits="userSpaceOnUse">
<stop stop-color="#EA4136"/>
<stop offset="1" stop-color="#FF8C53"/>
</linearGradient>
<linearGradient id="paint6_linear_1201_8494" x1="50.6655" y1="104.214" x2="55.6132" y2="99.5773" gradientUnits="userSpaceOnUse">
<stop stop-color="#EA4136"/>
<stop offset="1" stop-color="#FF8C53"/>
</linearGradient>
<linearGradient id="paint7_linear_1201_8494" x1="188.601" y1="119.144" x2="193.278" y2="116.261" gradientUnits="userSpaceOnUse">
<stop stop-color="#EA4136"/>
<stop offset="1" stop-color="#FF8C53"/>
</linearGradient>
<clipPath id="clip0_1201_8494">
<rect width="150" height="25" fill="white" transform="translate(50 95.3892)"/>
</clipPath>
</defs>
</svg>
