<svg width="86" height="86" viewBox="0 0 86 86" fill="none" xmlns="http://www.w3.org/2000/svg">
<g clip-path="url(#clip0_1201_9436)">
<path d="M83.4805 0H57.4453C56.0539 0 54.9258 1.12808 54.9258 2.51953V9.23828C54.9258 10.6297 56.0539 11.7578 57.4453 11.7578H65.9281L51.3816 26.3042C46.093 22.6407 39.6747 20.4922 32.7539 20.4922C14.6643 20.4922 0 35.1565 0 53.2461C0 71.3355 14.6643 86 32.7539 86C50.8435 86 65.5078 71.3355 65.5078 53.2461C65.5078 46.3251 63.3593 39.907 59.6958 34.6182L74.2422 20.0718V28.5547C74.2422 29.9461 75.3703 31.0742 76.7617 31.0742H83.4805C84.8719 31.0742 86 29.9461 86 28.5547V2.51953C86 1.12808 84.8719 0 83.4805 0ZM32.7539 74.2422C21.158 74.2422 11.7578 64.8418 11.7578 53.2461C11.7578 41.6502 21.158 32.25 32.7539 32.25C44.3498 32.25 53.75 41.6502 53.75 53.2461C53.75 64.8418 44.3498 74.2422 32.7539 74.2422Z" fill="white"/>
</g>
<defs>
<clipPath id="clip0_1201_9436">
<rect width="86" height="86" fill="white"/>
</clipPath>
</defs>
</svg>
